<svg width="32" height="32" viewBox="0 0 32 32" fill="none" xmlns="http://www.w3.org/2000/svg">
    <path
        d="M27.1196 5.75969C27.025 5.66813 26.9046 5.60794 26.7746 5.58732C26.6446 5.56671 26.5114 5.58667 26.3932 5.64449H20.5564C20.3867 5.64449 20.2239 5.71191 20.1038 5.83194C19.9838 5.95196 19.9164 6.11475 19.9164 6.28449C19.9164 6.45422 19.9838 6.61701 20.1038 6.73704C20.2239 6.85706 20.3867 6.92449 20.5564 6.92449H25.0876L17.11 15.1325L11.5196 11.2221C11.3923 11.1333 11.2372 11.0937 11.0829 11.1108C10.9287 11.1279 10.7859 11.2004 10.6812 11.3149L4.85399 17.6605C4.79705 17.7225 4.75287 17.7951 4.72399 17.8741C4.6951 17.9532 4.68207 18.0371 4.68563 18.1212C4.69284 18.2911 4.76721 18.4511 4.89239 18.5661C5.01757 18.6811 5.18331 18.7416 5.35314 18.7344C5.52298 18.7272 5.68299 18.6529 5.79799 18.5277L11.238 12.5917L16.8188 16.4957C16.9431 16.5829 17.0945 16.6231 17.2457 16.6091C17.397 16.595 17.5383 16.5276 17.6444 16.4189L26.0284 7.80449V12.4125C26.0284 12.5822 26.0958 12.745 26.2158 12.865C26.3359 12.9851 26.4987 13.0525 26.6684 13.0525C26.8381 13.0525 27.0009 12.9851 27.1209 12.865C27.241 12.745 27.3084 12.5822 27.3084 12.4125V6.30369C27.3216 6.20457 27.3114 6.10373 27.2786 6.00925C27.2458 5.91478 27.1914 5.82931 27.1196 5.75969Z"
        fill="#007991" />
    <path
        d="M27.3112 25.7754V15.8106C27.3112 15.6408 27.2438 15.478 27.1238 15.358C27.0038 15.238 26.841 15.1706 26.6712 15.1706C26.5015 15.1706 26.3387 15.238 26.2187 15.358C26.0987 15.478 26.0312 15.6408 26.0312 15.8106V25.7754C26.0312 25.9451 26.0987 26.1079 26.2187 26.2279C26.3387 26.3479 26.5015 26.4154 26.6712 26.4154C26.841 26.4154 27.0038 26.3479 27.1238 26.2279C27.2438 26.1079 27.3112 25.9451 27.3112 25.7754Z"
        fill="#007991" />
    <path
        d="M20.78 25.7754V18.4154C20.78 18.2457 20.7126 18.0829 20.5925 17.9628C20.4725 17.8428 20.3097 17.7754 20.14 17.7754C19.9703 17.7754 19.8075 17.8428 19.6875 17.9628C19.5674 18.0829 19.5 18.2457 19.5 18.4154V25.7754C19.5 25.9451 19.5674 26.1079 19.6875 26.2279C19.8075 26.348 19.9703 26.4154 20.14 26.4154C20.3097 26.4154 20.4725 26.348 20.5925 26.2279C20.7126 26.1079 20.78 25.9451 20.78 25.7754Z"
        fill="#007991" />
    <path
        d="M14.2463 25.7759V22.1439C14.2463 21.9742 14.1789 21.8114 14.0589 21.6914C13.9388 21.5713 13.776 21.5039 13.6063 21.5039C13.4366 21.5039 13.2738 21.5713 13.1538 21.6914C13.0337 21.8114 12.9663 21.9742 12.9663 22.1439V25.7759C12.9663 25.9456 13.0337 26.1084 13.1538 26.2285C13.2738 26.3485 13.4366 26.4159 13.6063 26.4159C13.776 26.4159 13.9388 26.3485 14.0589 26.2285C14.1789 26.1084 14.2463 25.9456 14.2463 25.7759Z"
        fill="#007991" />
    <path
        d="M7.71115 25.7757V21.4173C7.71115 21.2476 7.64372 21.0848 7.5237 20.9648C7.40368 20.8448 7.24089 20.7773 7.07115 20.7773C6.90141 20.7773 6.73863 20.8448 6.6186 20.9648C6.49858 21.0848 6.43115 21.2476 6.43115 21.4173V25.7757C6.43115 25.9455 6.49858 26.1083 6.6186 26.2283C6.73863 26.3483 6.90141 26.4157 7.07115 26.4157C7.24089 26.4157 7.40368 26.3483 7.5237 26.2283C7.64372 26.1083 7.71115 25.9455 7.71115 25.7757Z"
        fill="#007991" />
</svg>