<svg width="48" height="31" viewBox="0 0 48 31" fill="none" xmlns="http://www.w3.org/2000/svg">
    <mask id="mask0_5380_2390" style="mask-type:luminance" maskUnits="userSpaceOnUse" x="0" y="0"
        width="48" height="31">
        <path d="M47.1913 0.5H0V30.5H47.1913V0.5Z" fill="white" />
    </mask>
    <g mask="url(#mask0_5380_2390)">
        <mask id="mask1_5380_2390" style="mask-type:luminance" maskUnits="userSpaceOnUse" x="-5"
            y="-1" width="57" height="32">
            <path d="M51.4634 -0.138306H-4.96777V30.6946H51.4634V-0.138306Z" fill="white" />
        </mask>
        <g mask="url(#mask1_5380_2390)">
            <path opacity="0.89" fill-rule="evenodd" clip-rule="evenodd"
                d="M43.9673 29.331C46.2082 29.3412 47.5855 26.8139 46.4068 24.8549L39.7238 13.7479L33.0409 2.64097C31.8725 0.699137 29.1389 0.658376 27.9162 2.56456C27.2553 3.5949 27.2461 4.92852 27.8926 5.96845L41.5756 27.9774C42.0975 28.8169 42.9982 29.3266 43.9673 29.331Z"
                fill="#153566" />
            <path opacity="0.8" fill-rule="evenodd" clip-rule="evenodd"
                d="M20.7477 4.27152C20.9745 3.8447 20.9457 3.32251 20.6734 2.9248L20.0432 2.00447C19.0487 0.551978 16.9511 0.561252 15.9688 2.02249L0.827986 24.4819C-0.595121 26.5988 0.769127 29.3446 3.27235 29.3446C4.59126 29.3446 5.08365 29.0192 5.66397 28.1334L17.9934 9.45498L20.7477 4.27152Z"
                fill="#9BC418" />
            <path fill-rule="evenodd" clip-rule="evenodd"
                d="M12.8752 27.5412C13.9347 29.571 16.9262 30.0712 18.0396 28.0721L19.5919 25.838L21.2065 23.2933C22.3101 21.3119 21.0418 18.8222 18.8289 18.626C17.6327 18.52 17.1082 18.4976 15.9068 20.2273L12.8926 24.7346C12.4236 25.6064 12.417 26.6634 12.8752 27.5412Z"
                fill="#93D2C2" />
            <path opacity="0.8" fill-rule="evenodd" clip-rule="evenodd"
                d="M31.8248 29.4342C34.0545 29.4414 35.4049 26.9231 34.2149 24.9772L20.4059 2.39856C19.3355 0.648479 16.8774 0.589748 15.7501 2.28733C15.1297 3.22134 15.107 4.44726 15.6921 5.41263L29.4108 28.0489C29.931 28.9072 30.8439 29.4311 31.8248 29.4342Z"
                fill="#007991" />
        </g>
    </g>
</svg>