<svg width="32" height="32" viewBox="0 0 32 32" fill="none" xmlns="http://www.w3.org/2000/svg">
    <path fill-rule="evenodd" clip-rule="evenodd"
        d="M11.2941 4.23529C7.39565 4.23529 4.23531 7.39564 4.23531 11.2941C4.23531 15.1926 7.39565 18.3529 11.2941 18.3529C15.1926 18.3529 18.353 15.1926 18.353 11.2941C18.353 7.39564 15.1926 4.23529 11.2941 4.23529ZM3.05884 11.2941C3.05884 6.74589 6.7459 3.05882 11.2941 3.05882C15.8424 3.05882 19.5294 6.74589 19.5294 11.2941C19.5294 15.8423 15.8424 19.5294 11.2941 19.5294C6.7459 19.5294 3.05884 15.8423 3.05884 11.2941Z"
        fill="#A1CFC2" />
    <path fill-rule="evenodd" clip-rule="evenodd"
        d="M11.294 1.88235C6.09607 1.88235 1.88228 6.09614 1.88228 11.2941C1.88228 16.4921 6.09607 20.7059 11.294 20.7059C16.492 20.7059 20.7058 16.4921 20.7058 11.2941C20.7058 6.09614 16.492 1.88235 11.294 1.88235ZM0.705811 11.2941C0.705811 5.44639 5.44632 0.705879 11.294 0.705879C17.1418 0.705879 21.8823 5.44639 21.8823 11.2941C21.8823 17.1418 17.1418 21.8823 11.294 21.8823C5.44632 21.8823 0.705811 17.1418 0.705811 11.2941Z"
        fill="#A1CFC2" />
    <path fill-rule="evenodd" clip-rule="evenodd"
        d="M20.7302 19.0609C21.4194 18.3717 22.5367 18.3717 23.2259 19.0609L30.5318 26.3669C31.221 27.056 31.221 28.1734 30.5318 28.8626L29.4192 29.9752C28.73 30.6644 27.6127 30.6644 26.9235 29.9752L19.6175 22.6692C18.9284 21.9801 18.9284 20.8627 19.6175 20.1736L20.7302 19.0609ZM22.394 19.8928C22.1643 19.6631 21.7918 19.6631 21.5621 19.8928L20.4494 21.0055C20.2197 21.2352 20.2197 21.6076 20.4494 21.8373L27.7554 29.1433C27.9851 29.373 28.3576 29.373 28.5873 29.1433L29.7 28.0307C29.9297 27.801 29.9297 27.4285 29.7 27.1988L22.394 19.8928Z"
        fill="#A1CFC2" />
    <path fill-rule="evenodd" clip-rule="evenodd"
        d="M18.6185 17.2082C19.078 16.7488 19.8229 16.7488 20.2823 17.2082L21.4228 18.3487C21.8822 18.8081 21.8822 19.553 21.4228 20.0125L20.5694 20.8659C20.1099 21.3254 19.365 21.3254 18.9056 20.8659L17.7651 19.7254C17.3057 19.266 17.3057 18.5211 17.7651 18.0617L18.6185 17.2082ZM20.5909 19.1806L19.4504 18.0401L18.597 18.8935L19.7375 20.034L20.5909 19.1806Z"
        fill="#A1CFC2" />
    <path fill-rule="evenodd" clip-rule="evenodd"
        d="M8.94108 7.7647C8.94108 7.11496 9.4678 6.58823 10.1175 6.58823H12.4705C13.1202 6.58823 13.647 7.11496 13.647 7.7647V8.94118H14.8234C15.4732 8.94118 15.9999 9.4679 15.9999 10.1176V12.4706C15.9999 13.1203 15.4732 13.6471 14.8234 13.6471H13.647V14.8235C13.647 15.4733 13.1202 16 12.4705 16H10.1175C9.4678 16 8.94108 15.4733 8.94108 14.8235V13.6471H7.76461C7.11486 13.6471 6.58813 13.1203 6.58813 12.4706V10.1176C6.58813 9.4679 7.11486 8.94117 7.76461 8.94117H8.94108L8.94108 7.7647ZM12.4705 7.7647L10.1175 7.7647L10.1175 9.23529C10.1175 9.7226 9.7225 10.1176 9.23519 10.1176H7.76461V12.4706H9.23519C9.7225 12.4706 10.1175 12.8656 10.1175 13.3529V14.8235H12.4705V13.3529C12.4705 12.8656 12.8655 12.4706 13.3528 12.4706H14.8234V10.1176H13.3528C12.8655 10.1176 12.4705 9.7226 12.4705 9.23529V7.7647Z"
        fill="#A1CFC2" />
</svg>