<svg width="32" height="33" viewBox="0 0 32 33" fill="none" xmlns="http://www.w3.org/2000/svg">
    <path fill-rule="evenodd" clip-rule="evenodd"
        d="M26.7839 7.92461C23.5714 4.7121 18.3629 4.71209 15.1504 7.9246L8.70005 14.3749C8.59288 14.4821 8.59288 14.6558 8.70005 14.763C9.99021 16.0532 12.082 16.0532 13.3721 14.763L14.7514 13.3837C15.2895 12.8456 16.162 12.8456 16.7001 13.3837C17.9902 14.6739 20.082 14.6739 21.3721 13.3837L21.4046 13.3512C21.6201 13.1358 21.9694 13.1358 22.1849 13.3512C22.4003 13.5667 22.4003 13.916 22.1849 14.1315L22.1524 14.164C20.4313 15.885 17.6409 15.885 15.9198 14.164C15.8126 14.0568 15.6389 14.0568 15.5317 14.164L14.1524 15.5433C13.3336 16.362 12.2729 16.7913 11.2004 16.831C11.1849 16.8516 11.1678 16.8714 11.149 16.8901L7.31164 20.7271C7.31163 20.7271 7.31163 20.7271 7.31162 20.7271C6.90384 21.135 6.90385 21.7961 7.31164 22.2039C7.7064 22.5987 8.34184 22.6131 8.75412 22.2367L8.75414 22.2367L13.9731 17.4719C14.0795 17.3747 14.2136 17.3271 14.3471 17.3276C14.488 17.3279 14.6287 17.3817 14.7362 17.4892C14.9516 17.7046 14.9516 18.054 14.7362 18.2694L9.7957 23.2099C9.38791 23.6177 9.38791 24.2789 9.7957 24.6867C10.1905 25.0814 10.8259 25.0959 11.2382 24.7194L11.2382 24.7194L16.4572 19.9546C16.6786 19.7525 17.021 19.7641 17.2281 19.9809C17.4352 20.1977 17.4313 20.5402 17.2193 20.7522L12.2789 25.6926C11.8711 26.1004 11.8711 26.7616 12.2789 27.1694C12.6736 27.5642 13.3091 27.5786 13.7213 27.2022L18.94 22.4374C19.1614 22.2352 19.5037 22.2469 19.7109 22.4637C19.918 22.6804 19.9141 23.0229 19.7021 23.235L14.8745 28.0625C14.4044 28.5327 14.4044 29.2949 14.8745 29.765C15.3446 30.2352 16.1069 30.2352 16.577 29.765L26.7839 19.5581C29.9964 16.3456 29.9964 11.1371 26.7839 7.92461ZM8.41775 23.5817C7.75156 23.6969 7.04314 23.4959 6.53139 22.9842C5.69266 22.1454 5.69266 20.7856 6.53139 19.9469L6.53141 19.9469L9.81595 16.6627C9.12167 16.4633 8.46673 16.0902 7.9198 15.5433C7.3817 15.0052 7.3817 14.1328 7.9198 13.5947L14.3701 7.14434C18.0136 3.50091 23.9207 3.50092 27.5642 7.14436C31.2076 10.7878 31.2076 16.695 27.5642 20.3384L17.3573 30.5453C16.4562 31.4464 14.9953 31.4464 14.0942 30.5453C13.547 29.9981 13.3321 29.2444 13.4496 28.535C12.7649 28.6751 12.0269 28.478 11.4986 27.9497C10.9857 27.4368 10.7864 26.7289 10.9009 26.0646C10.235 26.1795 9.52697 25.9784 9.01545 25.4669C8.50249 24.954 8.30325 24.2461 8.41775 23.5817Z"
        fill="#9BC418" />
    <path fill-rule="evenodd" clip-rule="evenodd"
        d="M4.02403 7.00641C7.13423 3.89622 12.1769 3.89622 15.287 7.00641C15.5025 7.22188 15.5025 7.57121 15.287 7.78667C15.0716 8.00213 14.7223 8.00213 14.5068 7.78667C11.8275 5.1074 7.48356 5.1074 4.80429 7.78667L4.25257 8.33839C1.26859 11.3224 1.26859 16.1604 4.25257 19.1443L6.73533 21.6271C6.95079 21.8426 6.95079 22.1919 6.73533 22.4074C6.51986 22.6228 6.17053 22.6228 5.95507 22.4074L3.47231 19.9246C0.057407 16.5097 0.0574065 10.973 3.47231 7.55814L4.02403 7.00641Z"
        fill="#9BC418" />
</svg>